name analog
datacolumns 19
datarows 28
range 0.215 0.2285
endheader
time	ground_force_vx	ground_force_vy	ground_force_vz	ground_force_px	ground_force_py	ground_force_pz	l_ground_force_vx	l_ground_force_vy	l_ground_force_vz	l_ground_force_px	l_ground_force_py	l_ground_force_pz	ground_torque_x	ground_torque_y	ground_torque_z	l_ground_torque_x	l_ground_torque_y	l_ground_torque_z
0.215	-0.0	-0.0	-0.0	-8.028945922851562	29.118471145629883	-223.3475646972656	-4.545137405395508	-28.969512939453125	-223.4986114501953	-0.0	-0.0	-0.0	-0.0	-0.0	-0.0	62675.29296875	-7798.03857421875	-1352.45703125
0.2155	-0.0	-0.0	-0.0	-7.864189624786377	29.426685333251957	-223.88902282714844	-4.529719829559326	-29.078554153442383	-227.29769897460935	-0.0	-0.0	-0.0	-0.0	-0.0	-0.0	63456.5	-8350.4990234375	-1298.2498779296875
0.216	-0.0	-0.0	-0.0	-7.521372318267822	28.95406723022461	-225.0040435791016	-3.977079153060913	-29.65545463562012	-230.9523468017578	-0.0	-0.0	-0.0	-0.0	-0.0	-0.0	64520.37109375	-8667.9892578125	-1242.391357421875
0.2165	-0.0	-0.0	-0.0	-7.239023685455322	28.610858917236328	-226.55015563964844	-4.196157455444336	-29.322799682617188	-234.5485992431641	-0.0	-0.0	-0.0	-0.0	-0.0	-0.0	65602.375	-9068.8076171875	-1116.9468994140625
0.217	-0.0	-0.0	-0.0	-7.391885757446289	28.638965606689453	-228.23483276367188	-3.610162258148194	-29.17301750183105	-239.1688537597656	-0.0	-0.0	-0.0	-0.0	-0.0	-0.0	66713.4921875	-9620.951171875	-1009.5330200195312
0.2175	-0.0	-0.0	-0.0	-7.128786087036133	27.934181213378903	-231.445068359375	-3.3094890117645264	-28.71120262145996	-242.4989471435547	-0.0	-0.0	-0.0	-0.0	-0.0	-0.0	67497.890625	-9992.8564453125	-831.1474609375
0.218	-0.0	-0.0	-0.0	-6.650383949279785	26.99811744689941	-230.47999572753903	-2.8598318099975586	-28.36459350585937	-243.94894409179688	-0.0	-0.0	-0.0	-0.0	-0.0	-0.0	68373.671875	-10464.220703125	-677.8546752929688
0.2185	-0.0	-0.0	-0.0	-6.37419319152832	26.917381286621094	-233.1784210205078	-2.040348052978516	-28.42663955688477	-245.555908203125	-0.0	-0.0	-0.0	-0.0	-0.0	-0.0	69018.0078125	-10861.9599609375	-567.941162109375
0.219	-0.0	-0.0	-0.0	-6.037262916564941	26.99546813964844	-235.33285522460935	-1.2824952602386477	-28.202390670776367	-247.89764404296875	-0.0	-0.0	-0.0	-0.0	-0.0	-0.0	69850.40625	-11015.7958984375	-245.3878326416016
0.2195	-0.0	-0.0	-0.0	-6.095634937286377	26.511619567871094	-239.68814086914065	-1.0443459749221802	-28.13863754272461	-251.16749572753903	-0.0	-0.0	-0.0	-0.0	-0.0	-0.0	70905.53125	-11739.51171875	42.0214958190918
0.22	-0.0	-0.0	-0.0	-5.025890827178955	27.411880493164062	-240.9878845214844	-0.3347371816635132	-28.39129638671875	-254.3871612548828	-0.0	-0.0	-0.0	-0.0	-0.0	-0.0	71882.1953125	-12066.904296875	200.1988067626953
0.2205	-0.0	-0.0	-0.0	-4.519970417022705	27.719640731811523	-241.8498077392578	-0.1287826299667358	-29.037885665893555	-258.72137451171875	-0.0	-0.0	-0.0	-0.0	-0.0	-0.0	72677.1953125	-12409.01953125	299.70806884765625
0.221	-0.0	-0.0	-0.0	-4.292367935180664	27.00572204589844	-242.6314849853516	0.4036367535591125	-28.94080352783203	-260.85986328125	-0.0	-0.0	-0.0	-0.0	-0.0	-0.0	73267.5546875	-12856.2080078125	626.2606201171875
0.2215	-0.0	-0.0	-0.0	-3.4988763332366943	27.37356948852539	-247.18983459472656	0.8182855844497681	-29.274080276489254	-263.188232421875	-0.0	-0.0	-0.0	-0.0	-0.0	-0.0	74050.296875	-13145.1650390625	846.7529296875
0.222	-0.0	-0.0	-0.0	-2.576214075088501	27.2912654876709	-249.85324096679688	1.813820600509644	-29.62639808654785	-266.01617431640625	-0.0	-0.0	-0.0	-0.0	-0.0	-0.0	74842.375	-13579.9970703125	1140.8636474609375
0.2225	-0.0	-0.0	-0.0	-2.7738289833068848	27.995241165161133	-250.7906188964844	2.681049108505249	-29.67608642578125	-268.458984375	-0.0	-0.0	-0.0	-0.0	-0.0	-0.0	75668.4375	-14009.88671875	1530.339599609375
0.223	-0.0	-0.0	-0.0	-2.7655258178710938	27.975475311279297	-253.3209228515625	3.548431396484375	-29.882343292236328	-271.0169677734375	-0.0	-0.0	-0.0	-0.0	-0.0	-0.0	76620.4140625	-14090.5986328125	1794.493896484375
0.2235	-0.0	-0.0	-0.0	-3.0331573486328125	27.878477096557617	-252.4170684814453	4.11985445022583	-30.460634231567383	-275.48065185546875	-0.0	-0.0	-0.0	-0.0	-0.0	-0.0	78049.5	-14354.8017578125	2246.58837890625
0.224	-0.0	-0.0	-0.0	-2.5607075691223145	27.52916717529297	-251.3397674560547	4.455031394958496	-30.50108337402344	-280.522216796875	-0.0	-0.0	-0.0	-0.0	-0.0	-0.0	79163.1796875	-15137.6953125	2144.268310546875
0.2245	-0.0	-0.0	-0.0	-2.370288848876953	27.50970458984375	-252.2196502685547	4.493805885314941	-30.87130546569824	-282.8892517089844	-0.0	-0.0	-0.0	-0.0	-0.0	-0.0	79926.0625	-15178.94140625	2335.128662109375
0.225	-0.0	-0.0	-0.0	-2.1219303607940674	27.7004508972168	-253.43179321289065	4.909764289855957	-31.29641342163086	-285.1807556152344	-0.0	-0.0	-0.0	-0.0	-0.0	-0.0	80149.3125	-15226.1201171875	2448.506103515625
0.2255	-0.0	-0.0	-0.0	-1.2298957109451294	27.299888610839844	-253.68255615234372	5.125948905944824	-31.914875030517575	-285.0594482421875	-0.0	-0.0	-0.0	-0.0	-0.0	-0.0	80243.78125	-15305.1201171875	2408.653076171875
0.226	-0.0	-0.0	-0.0	-1.0838778018951416	27.918886184692383	-252.8768310546875	5.157175540924072	-31.669273376464844	-283.464111328125	-0.0	-0.0	-0.0	-0.0	-0.0	-0.0	80036.796875	-15162.2314453125	2521.06298828125
0.2265	-0.0	-0.0	-0.0	-1.1733977794647217	28.216596603393555	-251.3559417724609	5.329501628875732	-32.218387603759766	-284.4833679199219	-0.0	-0.0	-0.0	-0.0	-0.0	-0.0	80157.3125	-14820.4892578125	2533.931884765625
0.227	-0.0	-0.0	-0.0	-0.9436818957328796	29.267501831054688	-252.67263793945312	5.601318359375	-32.54029846191406	-284.28436279296875	-0.0	-0.0	-0.0	-0.0	-0.0	-0.0	80062.140625	-14755.330078125	2625.257568359375
0.2275	-0.0	-0.0	-0.0	-0.356842041015625	29.478952407836918	-254.3073272705078	4.9867706298828125	-32.874549865722656	-285.805908203125	-0.0	-0.0	-0.0	-0.0	-0.0	-0.0	80350.671875	-14892.7822265625	2397.984130859375
0.228	-0.0	-0.0	-0.0	-0.4939015507698059	29.891904830932617	-254.8482208251953	4.384588241577148	-32.89326095581055	-283.0876770019531	-0.0	-0.0	-0.0	-0.0	-0.0	-0.0	79784.171875	-14531.9453125	2249.23095703125
0.2285	-0.0	-0.0	-0.0	0.0520451590418815	30.590293884277344	-251.2138214111328	4.276927471160889	-32.67902374267578	-283.08795166015625	-0.0	-0.0	-0.0	-0.0	-0.0	-0.0	79612.5546875	-14280.4951171875	2172.795654296875
